<?xml version="1.0" encoding="utf-8"?>
<!-- Generator: Adobe Illustrator 22.0.0, SVG Export Plug-In . SVG Version: 6.00 Build 0)  -->
<svg version="1.1" id="Warstwa_1" xmlns="http://www.w3.org/2000/svg" xmlns:xlink="http://www.w3.org/1999/xlink" x="0px" y="0px"
	 viewBox="0 0 938.5 193.8" style="enable-background:new 0 0 938.5 193.8;" xml:space="preserve" fill='#ffffff'>
<path d="M92.3,94.7l31,34.4h-19.8L77.4,98.6v30.5H63.3V74.9l14.1,16.7l25-26.7h18.5L92.3,94.7z M183.2,129.1h14.2V78h26.2V64.9
	h-40.4V129.1z M279,130.8h13.5l26-67.5l-14.3-0.1L279,130.8z M411.1,95.3c-2.2-1.3-4.6-2.4-7.1-3.1s-4.9-1.5-7.1-2.2
	c-2.2-0.7-4-1.6-5.5-2.6c-1.5-1-2.2-2.5-2.2-4.4c0-1.2,0.3-2.2,0.9-3.1c0.6-0.8,1.4-1.5,2.4-2s2-0.9,3.1-1.1s2.1-0.4,3.2-0.4
	c1.8,0,3.6,0.3,5.6,1c2,0.7,3.5,1.8,4.7,3.2l9.7-10.6c-2.7-2.4-5.8-4.1-9.2-5.2c-3.4-1-6.9-1.5-10.5-1.5c-3.1,0-6.2,0.4-9.2,1.3
	c-3,0.9-5.6,2.2-7.9,3.9c-2.3,1.8-4.1,3.9-5.4,6.5c-1.4,2.6-2,5.6-2,9.1c0,3.6,0.7,6.4,2.2,8.6c1.5,2.2,3.3,3.9,5.6,5.3
	c2.2,1.3,4.7,2.4,7.3,3.2c2.6,0.8,5,1.6,7.3,2.4c2.2,0.8,4.1,1.7,5.6,2.9c1.5,1.1,2.2,2.6,2.2,4.6c0,1.2-0.3,2.1-0.9,3
	c-0.6,0.8-1.3,1.5-2.3,2.1c-0.9,0.5-2,1-3.2,1.2c-1.2,0.3-2.3,0.4-3.5,0.4c-2.4,0-4.6-0.5-6.9-1.6c-2.2-1.1-4-2.6-5.5-4.5
	l-10.1,11.1c3.1,2.8,6.4,4.9,10,6.2c3.6,1.3,7.4,1.9,11.6,1.9c3.3,0,6.5-0.4,9.5-1.3c3-0.8,5.6-2.1,7.9-3.9s4.1-4,5.4-6.6
	c1.3-2.7,2-5.8,2-9.3c0-3.8-0.7-6.7-2.2-9C415.1,98.4,413.3,96.6,411.1,95.3z M651.3,103L640,89.9h-22.6l11.3,13.1H651.3z
	 M604.3,64.9V78v12v2.8V103l13.1-13.1V78h32.2V64.9H604.3z M604.3,129.1h45.3v-13.1h-45.3V129.1z M734.4,106.1c0,1.2,0,2.5-0.1,3.9
	c-0.1,1.4-0.3,2.7-0.8,3.9c-0.4,1.2-1.1,2.2-2,3c-0.9,0.8-2.2,1.2-3.8,1.2c-1.6,0-3-0.5-4.2-1.6c-1.2-1.1-2-2.4-2.1-4l-13,3.2
	c1,5.1,3.3,8.9,6.8,11.3c3.5,2.4,7.8,3.6,12.9,3.6c4.4,0,7.9-0.7,10.6-2c2.7-1.3,4.8-3,6.2-5.2c1.5-2.1,2.4-4.6,2.9-7.4
	c0.5-2.8,0.8-5.7,0.8-8.6V64.9h-14.2V106.1z M812.2,71.3h8v21.2h7.2V71.3h8v-6.4h-23.2V71.3z M864.1,64.9l-6.6,17.9L851,64.9h-9.7
	v27.6h7.2V74.5h0.1l6.6,17.9h4.7l6.6-17.9h0.1v17.9h7.2V64.9H864.1z M541.9,64.9h-18.5l-25,26.7V64.9h-14.1v46.9L498,98.2l26.5,30.9
	h19.8l-31-34.4L541.9,64.9z"/>
</svg>
