<?xml version="1.0" ?><!DOCTYPE svg  PUBLIC '-//W3C//DTD SVG 1.1//EN'  'http://www.w3.org/Graphics/SVG/1.1/DTD/svg11.dtd'><svg height="2048px" style="shape-rendering:geometricPrecision; text-rendering:geometricPrecision; image-rendering:optimizeQuality; fill-rule:evenodd; clip-rule:evenodd" viewBox="0 0 2048 2048" width="2048px" xml:space="preserve" xmlns="http://www.w3.org/2000/svg" xmlns:xlink="http://www.w3.org/1999/xlink"><defs><style type="text/css">
   <![CDATA[
    .fil1 {fill:none}
    .fil0 {fill:#ffffff;fill-rule:nonzero}
   ]]>
  </style></defs><g id="Layer_x0020_1"><path class="fil0" d="M1540.85 370.282c2.68937,0.0425197 5.18032,0.0992127 7.4126,0.17126l0 0.00236221c75.9142,2.20748 133.326,26.7815 172.233,73.6997 38.2477,46.1221 57.6969,113.333 58.3418,201.604l0.0625985 0.0625985 0 8.94213 -0.0625985 0.0625985c-0.0295276,4.57087 -0.105118,9.02127 -0.220866,13.3512 -0.132284,4.89567 -0.296457,9.45946 -0.491339,13.6654l0 0.0625985c-3.50551,74.2087 -30.7465,161.449 -81.7642,261.74 -50.3918,99.0603 -124.251,211.397 -221.621,337.033l0.00944883 0.00708662c-100.841,131.353 -194.195,230.028 -279.992,296.021 -87.6674,67.4315 -167.969,101.146 -240.841,101.146 -47.5276,0 -91.1138,-21.6732 -130.616,-65.0044 -37.5933,-41.2359 -71.5678,-102.569 -101.789,-183.977l-0.499607 -1.37599c-13.0925,-48.1618 -26.2134,-96.3272 -39.3319,-144.495 -25.4752,-93.5327 -50.9528,-187.071 -79.5757,-292.97l0.0259843 -0.00708662c-21.6118,-78.0095 -43.8792,-136.247 -66.7902,-174.71 -20.5666,-34.5236 -40.5048,-51.789 -59.8052,-51.789 -2.47559,0 -12.2091,5.10119 -29.1898,15.3354 -18.9851,11.4437 -44.6811,28.5236 -77.0068,51.2752l-12.4536 8.76615 -9.35906 -12.078 -69.2469 -89.3635 -9.17717 -11.8441 11.2394 -9.90591c39.5965,-34.8945 75.4371,-66.7382 108.082,-95.9812 32.9563,-29.5229 68.5878,-61.702 106.399,-96.0473l0.312992 -0.250394c49.0394,-42.5292 92.0316,-75.078 129.006,-97.6241 38.2961,-23.3528 70.7788,-36.2823 97.48,-38.7674l0 -0.00590552c62.4768,-6.02363 113.097,12.5587 151.863,55.7433 37.2874,41.5359 62.8217,105.84 76.6182,192.907l0 0.0625985c13.7811,88.1528 25.7669,161.204 35.915,219.097 9.91418,56.5583 17.6162,95.7013 23.0799,117.451l0.125197 0.438189c16.2839,73.943 33.1819,129.099 50.7426,165.436 15.2303,31.513 29.4331,47.2796 42.6414,47.2796 10.7894,0 26.1284,-10.474 46.0335,-31.4374 22.2839,-23.4697 48.5977,-59.1166 78.9615,-106.956l0.0271654 0.0177165c30.339,-47.9315 53.5961,-90.0367 69.7465,-126.3 15.711,-35.2784 24.5953,-64.7752 26.6327,-88.4729l0.0625985 -0.312992c3.94607,-37.6855 -0.99567,-65.3174 -14.8146,-82.9064 -13.2673,-16.8851 -35.9894,-25.3229 -68.1544,-25.3229 -16.6571,0 -33.4654,1.82717 -50.4508,5.44725 -17.2984,3.68504 -34.7894,9.18072 -52.5012,16.448l-31.2012 12.8032 9.8882 -32.2406c35.902,-117.058 87.9024,-205.292 156.019,-264.732 68.8075,-60.0402 153.521,-90.4548 254.158,-91.2721l0.125197 -0.0625985 6.35197 0 0.0625985 0.0625985c2.52638,0.011811 4.98307,0.034252 7.29804,0.0720473z"/></g><rect class="fil1" height="2048" width="2048"/></svg>